<?xml version="1.0" encoding="utf-8" standalone="no"?>
<!DOCTYPE svg PUBLIC "-//W3C//DTD SVG 1.1//EN" "http://www.w3.org/Graphics/SVG/1.1/DTD/svg11-flat-20030114.dtd">
<!-- Created by SVGDeveloper 1.0 -->
<svg width="298" height="257" version="1.1" xmlns="http://www.w3.org/2000/svg" xmlns:xlink="http://www.w3.org/1999/xlink">
<path d="M139 49L66 176L138 302L290 303L362 176L290 49" fill="#ECBF35" stroke="none" stroke-opacity="0" transform="matrix(0.9999999,0,0,0.9999999,-65.38515,-47.43608)" xmlns="http://www.w3.org/2000/svg" />
<path d="M144.9941 56.65612L78.54675 176.064L144.3362 291.1956L284.4678 291.5246" fill="#6A953D" stroke="none" stroke-opacity="0" transform="matrix(0.9999999,0,0,0.9999999,-65.38885,-47.11665)" xmlns="http://www.w3.org/2000/svg" />
<path d="M144.9939 56.656L284.1386 56.656L351.5728 174.7481L284.1386 291.8534" fill="#518F9B" stroke="none" stroke-opacity="0" transform="matrix(0.9999999,0,0,0.9999999,-65.38858,-47.11652)" xmlns="http://www.w3.org/2000/svg" />
<path d="M143 152M144 152L144 169L141 181L140 190L139 198L138 215L137 224L136 239L135 246L133 264L157 264L153 224L150 193L146 170L146 153L224 188L308 143L224 100L138 149" fill="#FFFFFF" stroke="none" stroke-opacity="0" transform="matrix(0.9999999,0,0,0.9999999,-66.66772,-51.28267)" xmlns="http://www.w3.org/2000/svg" />
<circle cx="137.875" cy="176.375" r="6.875" fill="#FFFFFF" stroke="none" stroke-opacity="0" transform="matrix(0.9999999,0,0,0.9999999,-59.91719,-51.6027)" xmlns="http://www.w3.org/2000/svg" />
<path d="M181 173L170 188L224 221L227 221L278 188L265 170L224 193M123 186" fill="#FFFFFF" stroke="none" stroke-opacity="0" transform="matrix(0.9999999,0,0,0.9999999,-66.98811,-50.00064)" xmlns="http://www.w3.org/2000/svg" />
<text x="182.3718" y="263.4615" xml:space="preserve" font-family="Microsoft YaHei UI" font-size="32" fill="#FFFFFF" stroke="none" stroke-opacity="0" font-weight="bold" transform="matrix(1,0,0,1,-76.282,-38.462)" xmlns="http://www.w3.org/2000/svg">
ZYNC</text>
</svg>